<svg width="74" height="72" viewBox="0 0 74 72" fill="none" xmlns="http://www.w3.org/2000/svg">
<circle cx="37" cy="40" r="32" fill="url(#paint0_linear)"/>
<g clip-path="url(#clip0)">
<path d="M7.82854 8.88367C8.82979 8.88367 9.64146 8.06588 9.64146 7.05707C9.64146 6.04827 8.82979 5.23047 7.82854 5.23047C6.8273 5.23047 6.01562 6.04827 6.01562 7.05707C6.01562 8.06588 6.8273 8.88367 7.82854 8.88367Z" fill="#202758"/>
<path d="M7.82869 9.13279C6.67501 9.13279 5.76855 8.21949 5.76855 7.05711C5.76855 5.89473 6.67501 5.06445 7.82869 5.06445C8.98236 5.06445 9.88882 5.97775 9.88882 7.05711C9.80642 8.21949 8.89996 9.13279 7.82869 9.13279ZM7.82869 5.47959C6.92223 5.47959 6.18058 6.22684 6.18058 7.05711C6.18058 7.88738 6.92223 8.71766 7.82869 8.71766C8.73515 8.71766 9.47679 7.97041 9.47679 7.05711C9.47679 6.14381 8.65274 5.47959 7.82869 5.47959Z" fill="#202758"/>
<path d="M13.6791 8.88367C14.6804 8.88367 15.492 8.06588 15.492 7.05707C15.492 6.04827 14.6804 5.23047 13.6791 5.23047C12.6779 5.23047 11.8662 6.04827 11.8662 7.05707C11.8662 8.06588 12.6779 8.88367 13.6791 8.88367Z" fill="#202758"/>
<path d="M13.6793 9.13279C12.5256 9.13279 11.6191 8.21949 11.6191 7.05711C11.6191 5.89473 12.5256 5.06445 13.6793 5.06445C14.8329 5.06445 15.657 5.97775 15.657 7.05711C15.657 8.21949 14.7505 9.13279 13.6793 9.13279ZM13.6793 5.47959C12.7728 5.47959 12.0312 6.22684 12.0312 7.05711C12.0312 7.88738 12.7728 8.71766 13.6793 8.71766C14.5857 8.71766 15.245 7.97041 15.245 7.05711C15.245 6.14381 14.5033 5.47959 13.6793 5.47959Z" fill="#202758"/>
<path d="M19.4477 8.88367C20.4489 8.88367 21.2606 8.06588 21.2606 7.05707C21.2606 6.04827 20.4489 5.23047 19.4477 5.23047C18.4464 5.23047 17.6348 6.04827 17.6348 7.05707C17.6348 8.06588 18.4464 8.88367 19.4477 8.88367Z" fill="#202758"/>
<path d="M19.4478 9.13279C18.2942 9.13279 17.3877 8.21949 17.3877 7.05711C17.3877 5.89473 18.2942 5.06445 19.4478 5.06445C20.6015 5.06445 21.4256 5.97775 21.4256 7.05711C21.4256 8.21949 20.5191 9.13279 19.4478 9.13279ZM19.4478 5.47959C18.5414 5.47959 17.7997 6.22684 17.7997 7.05711C17.7997 7.88738 18.5414 8.71766 19.4478 8.71766C20.3543 8.71766 21.0135 7.97041 21.0135 7.05711C21.0135 6.14381 20.2719 5.47959 19.4478 5.47959Z" fill="#202758"/>
<path d="M58.0952 39.2867H15.9861C15.3268 39.2867 14.75 38.7055 14.75 38.0413C14.75 37.3771 15.3268 36.7959 15.9861 36.7959H58.0952C58.7545 36.7959 59.3313 37.3771 59.3313 38.0413C59.3313 38.7055 58.7545 39.2867 58.0952 39.2867Z" fill="#202758"/>
<path d="M58.0954 39.5359H15.9862C15.2446 39.5359 14.5029 38.8716 14.5029 38.0414C14.5029 37.2111 15.1622 36.5469 15.9862 36.5469H58.0954C58.837 36.5469 59.5787 37.2111 59.5787 38.0414C59.5787 38.8716 58.837 39.5359 58.0954 39.5359ZM15.9862 37.045C15.4094 37.045 14.9974 37.5432 14.9974 38.0414C14.9974 38.5395 15.4918 39.0377 15.9862 39.0377H58.0954C58.6722 39.0377 59.0842 38.5395 59.0842 38.0414C59.0842 37.5432 58.5898 37.045 58.0954 37.045H15.9862Z" fill="#202758"/>
<path d="M51.0908 45.0982H23.073C22.4138 45.0982 21.8369 44.517 21.8369 43.8528C21.8369 43.1886 22.4138 42.6074 23.073 42.6074H51.0908C51.7501 42.6074 52.3269 43.1886 52.3269 43.8528C52.3269 44.517 51.7501 45.0982 51.0908 45.0982Z" fill="#202758"/>
<path d="M51.091 45.3474H23.0731C22.3315 45.3474 21.5898 44.6832 21.5898 43.8529C21.5898 43.0226 22.2491 42.3584 23.0731 42.3584H51.091C51.8326 42.3584 52.5743 43.0226 52.5743 43.8529C52.5743 44.6832 51.8326 45.3474 51.091 45.3474ZM23.0731 42.8566C22.4963 42.8566 22.0843 43.3547 22.0843 43.8529C22.0843 44.3511 22.5787 44.8492 23.0731 44.8492H51.091C51.6678 44.8492 52.0798 44.3511 52.0798 43.8529C52.0798 43.3547 51.5854 42.8566 51.091 42.8566H23.0731Z" fill="#202758"/>
<path d="M67.0778 53.3035H7.00431C3.29607 53.3035 0.24707 50.2315 0.24707 46.4953V6.97426C0.24707 3.23803 3.29607 0.166016 7.00431 0.166016H67.0778C70.786 0.166016 73.835 3.23803 73.835 6.97426V46.4953C73.835 50.3145 70.786 53.3035 67.0778 53.3035ZM7.00431 2.73986C4.69696 2.73986 2.71923 4.64949 2.71923 7.05728V46.5783C2.71923 48.9031 4.61455 50.8957 7.00431 50.8957H67.0778C69.3851 50.8957 71.3629 48.9861 71.3629 46.5783V7.05728C71.3629 4.73252 69.4676 2.73986 67.0778 2.73986H7.00431Z" fill="#202758"/>
<path d="M67.0779 53.5526H7.00445C3.1314 53.5526 0 50.3976 0 46.4953V6.9743C0 3.15504 3.1314 0 7.00445 0H67.0779C70.951 0 74.0824 3.15504 74.0824 6.9743V46.4953C74 50.3976 70.8686 53.5526 67.0779 53.5526ZM7.00445 0.415137C3.37862 0.415137 0.412027 3.40412 0.412027 6.9743V46.4953C0.412027 50.1485 3.37862 53.1375 7.00445 53.1375H67.0779C70.7038 53.1375 73.6704 50.1485 73.6704 46.4953V6.9743C73.6704 3.32109 70.7038 0.415137 67.0779 0.415137H7.00445ZM67.0779 51.1448H7.00445C4.53229 51.1448 2.47216 49.1522 2.47216 46.5783V7.05732C2.47216 4.5665 4.44989 2.57385 7.00445 2.57385H67.0779C69.5501 2.57385 71.6102 4.5665 71.6102 7.05732V46.5783C71.5278 49.1522 69.5501 51.1448 67.0779 51.1448ZM7.00445 2.98898C4.77951 2.98898 2.88419 4.81559 2.88419 7.05732V46.5783C2.88419 48.8201 4.6971 50.7297 7.00445 50.7297H67.0779C69.3029 50.7297 71.1982 48.9031 71.1982 46.5783V7.05732C71.1982 4.81559 69.3853 2.98898 67.0779 2.98898H7.00445V2.98898Z" fill="#202758"/>
<path d="M37.0821 31.8067C33.0443 31.8067 29.748 28.4856 29.748 24.4173C29.748 20.3489 33.0443 17.0278 37.0821 17.0278C41.12 17.0278 44.4162 20.3489 44.4162 24.4173C44.4162 28.4856 41.12 31.8067 37.0821 31.8067ZM37.0821 19.5187C34.3627 19.5187 32.2202 21.7604 32.2202 24.4173C32.2202 27.1572 34.4452 29.3159 37.0821 29.3159C39.8015 29.3159 41.944 27.0741 41.944 24.4173C41.944 21.7604 39.7191 19.5187 37.0821 19.5187Z" fill="white"/>
<path d="M37.0819 32.0558C32.9616 32.0558 29.583 28.6517 29.583 24.5003C29.583 20.3489 32.9616 16.9448 37.0819 16.9448C41.2022 16.9448 44.5808 20.3489 44.5808 24.5003C44.5808 28.6517 41.2022 32.0558 37.0819 32.0558ZM37.0819 17.2769C33.1264 17.2769 29.995 20.515 29.995 24.4173C29.995 28.3196 33.2088 31.5576 37.0819 31.5576C40.9549 31.5576 44.1688 28.3196 44.1688 24.4173C44.1688 20.515 40.9549 17.2769 37.0819 17.2769ZM37.0819 29.565C34.2801 29.565 32.0552 27.2402 32.0552 24.5003C32.0552 21.7604 34.3625 19.4356 37.0819 19.4356C39.8013 19.4356 42.1086 21.7604 42.1086 24.5003C42.1086 27.2402 39.8013 29.565 37.0819 29.565ZM37.0819 19.7678C34.5273 19.7678 32.4672 21.8434 32.4672 24.4173C32.4672 26.9911 34.5273 29.0668 37.0819 29.0668C39.6365 29.0668 41.6966 26.9911 41.6966 24.4173C41.6966 21.9265 39.5541 19.7678 37.0819 19.7678Z" fill="white"/>
<circle cx="37" cy="24" r="6" fill="white"/>
</g>
<defs>
<linearGradient id="paint0_linear" x1="37" y1="8" x2="30" y2="198" gradientUnits="userSpaceOnUse">
<stop stop-color="#4457FF"/>
<stop offset="1" stop-color="#4457FF" stop-opacity="0"/>
</linearGradient>
<clipPath id="clip0">
<rect width="74" height="53.5526" fill="white"/>
</clipPath>
</defs>
</svg>
